<svg width="20" height="20" viewBox="0 0 20 20" fill="none" xmlns="http://www.w3.org/2000/svg">
<path d="M9.07088 1.16789C9.41462 0.351427 10.5854 0.351428 10.9291 1.16789L12.9579 5.98678C13.1029 6.33098 13.4306 6.56615 13.8067 6.59594L19.0727 7.01302C19.9649 7.08369 20.3267 8.18368 19.6469 8.75894L15.6348 12.1542C15.3482 12.3968 15.223 12.7773 15.3106 13.1399L16.5363 18.2165C16.744 19.0767 15.7969 19.7565 15.033 19.2957L10.5245 16.5751C10.2025 16.3808 9.7975 16.3808 9.47548 16.5751L4.96699 19.2957C4.20311 19.7565 3.25596 19.0767 3.46363 18.2165L4.68942 13.1399C4.77698 12.7773 4.65182 12.3968 4.36526 12.1542L0.353062 8.75894C-0.326718 8.18368 0.0350679 7.08369 0.927291 7.01302L6.19336 6.59594C6.5695 6.56615 6.89716 6.33098 7.04207 5.98678L9.07088 1.16789Z" fill="#F9B811"/>
</svg>
