<svg width="20" height="20" viewBox="0 0 20 20" fill="none" xmlns="http://www.w3.org/2000/svg">
<path d="M9.07068 1.0568C9.41442 0.240343 10.5852 0.240344 10.9289 1.0568L12.9577 5.87569C13.1027 6.21989 13.4304 6.45507 13.8065 6.48486L19.0725 6.90194C19.9647 6.9726 20.3265 8.07259 19.6467 8.64786L15.6346 12.0431C15.348 12.2857 15.2228 12.6662 15.3104 13.0288L16.5361 18.1055C16.7438 18.9656 15.7967 19.6455 15.0328 19.1846L10.5243 16.464C10.2023 16.2697 9.7973 16.2697 9.47528 16.464L4.96679 19.1846C4.20291 19.6455 3.25576 18.9656 3.46343 18.1055L4.68922 13.0288C4.77678 12.6662 4.65162 12.2857 4.36506 12.0431L0.352864 8.64786C-0.326916 8.07259 0.0348695 6.9726 0.927093 6.90194L6.19316 6.48486C6.5693 6.45507 6.89696 6.21989 7.04187 5.87569L9.07068 1.0568Z" fill="#B0B0B0"/>
</svg>
